# xmcd
#
# Track frame offsets:
#	150
#	13672
#	28118
#	45801
#	59037
#	72809
#	90654
#	104877
#	119282
#	146504
#	159032
#	176345
#	186426
#	197873
#	212457
#
# Disc length: 3164 seconds
#
# Revision: 0
# Processed by: cddbd v1.5.2PL0 Copyright (c) Steve Scherf et al.
# Submitted via: audiograbber 1.83.01
#
DISCID=ce0c5a0f
DTITLE=Fried Bourbon - Deep Fried
DYEAR=2008
DGENRE=Blues
TTITLE0=Ding Dong
TTITLE1=My Sweet Girl
TTITLE2=Angelina
TTITLE3=Black Cat Bone
TTITLE4=Got You On My Mind
TTITLE5=Camel Chase
TTITLE6=Open Your Heart
TTITLE7=Candy
TTITLE8=The River Styx
TTITLE9=Doin' Time
TTITLE10=Biggest Little Sumpin'
TTITLE11=Loaded Dice
TTITLE12=Deep Fried Boogie
TTITLE13=On My Way
TTITLE14=We Gotta Go
EXTD=ft. Gene Taylor
EXTT0=
EXTT1=
EXTT2=
EXTT3=
EXTT4=
EXTT5=
EXTT6=
EXTT7=
EXTT8=
EXTT9=
EXTT10=
EXTT11=
EXTT12=
EXTT13=
EXTT14=
PLAYORDER=
